<?xml version="1.0" encoding="utf-8"?>
<!-- Generator: Adobe Illustrator 19.0.0, SVG Export Plug-In . SVG Version: 6.00 Build 0)  -->
<svg version="1.1" id="Layer_1" xmlns="http://www.w3.org/2000/svg" xmlns:xlink="http://www.w3.org/1999/xlink" x="0px" y="0px"
	 width="104.9px" height="43.8px" viewBox="-8 58.2 104.9 43.8" style="enable-background:new -8 58.2 104.9 43.8;"
	 xml:space="preserve">
<style type="text/css">
	.st0{fill:#03A983;}
	.st1{fill:#FFFFFF;}
</style>
<g>
	<path class="st0" d="M-5.8,60.4h31.4v5.8H-5.8V60.4z M-8,68.5h35.9V58.2H-8V68.5z"/>
	<g>
		<path class="st1" d="M50.2,94.9h3.6c0-1.1-0.6-1.9-1.7-1.9C51.1,93,50.4,93.8,50.2,94.9 M52.4,99.4c-2.1,0-3.6-1.4-3.6-3.7
			c0-2.3,1.4-3.9,3.3-3.9c2,0,3,1.4,3,3.6V96h-5c0.1,1.5,1.1,2.2,2.4,2.2c0.8,0,1.4-0.2,2-0.7l0,0v1.2
			C54.1,99.2,53.3,99.4,52.4,99.4 M45.4,95c1,0.3,2.2,0.8,2.2,2.1c0,1.5-1.2,2.2-2.8,2.2c-1,0-1.9-0.2-2.5-0.7v-1.3h0.1
			c0.6,0.6,1.5,0.8,2.4,0.8c0.8,0,1.5-0.3,1.5-0.9c0-0.6-0.6-0.8-1.7-1.2c-1-0.3-2.2-0.7-2.2-2.1c0-1.4,1.2-2.2,2.6-2.2
			c0.9,0,1.6,0.2,2.2,0.6v1.3h-0.1c-0.6-0.5-1.3-0.8-2.1-0.8c-0.9,0-1.3,0.4-1.3,0.9C43.7,94.4,44.3,94.6,45.4,95 M39.2,92h1.4v7.2
			h-1.4V92z M39.9,89c0.5,0,0.9,0.4,0.9,0.9c0,0.5-0.4,0.9-0.9,0.9S39,90.4,39,89.9C39,89.4,39.4,89,39.9,89 M35.4,93.1
			c0.3-0.8,1-1.2,1.8-1.2c0.3,0,0.6,0,0.7,0.1v1.4l0,0c-0.3-0.2-0.6-0.2-0.9-0.2c-0.7,0-1.4,0.5-1.6,1.3v4.7H34v-7.3h1.4V93.1z
			 M28.9,98.1c1.4,0,2.1-1.1,2.1-2.5c0-1.5-0.8-2.5-2.1-2.5c-0.7,0-1.4,0.4-1.8,1.2v2.8C27.4,97.7,28.1,98.1,28.9,98.1 M29.1,91.8
			c2.2,0,3.3,1.8,3.3,3.8s-1.2,3.8-3.3,3.8c-0.9,0-1.7-0.5-2-1v3.6h-1.4V92h1.4v0.8C27.4,92.3,28.2,91.8,29.1,91.8 M21.9,93.1
			c0.3-0.8,1-1.2,1.8-1.2c0.3,0,0.6,0,0.7,0.1v1.4l0,0c-0.2-0.2-0.5-0.2-0.9-0.2c-0.7,0-1.4,0.5-1.6,1.3v4.7h-1.4v-7.3h1.4V93.1z
			 M14,94.9h3.6c0-1.1-0.6-1.9-1.7-1.9C14.9,93,14.2,93.8,14,94.9 M16.2,99.4c-2.1,0-3.6-1.4-3.6-3.7c0-2.3,1.4-3.9,3.3-3.9
			c2,0,3,1.4,3,3.6V96h-5c0.1,1.5,1.1,2.2,2.4,2.2c0.8,0,1.4-0.2,2-0.7h0.1v1.2C17.8,99.2,17.1,99.4,16.2,99.4 M9.8,92h1.9v1.2H9.8
			v3.9c0,0.8,0.4,1.1,1.2,1.1c0.2,0,0.4,0,0.6-0.1l0,0v1.1c-0.2,0.1-0.5,0.1-0.9,0.1c-1.7,0-2.4-0.8-2.4-2.2v-4H7v-1.2h1.3V90h1.4
			L9.8,92L9.8,92z M3.6,91.8c1.6,0,2.5,1.1,2.5,2.8v4.6H4.7v-4.5c0-0.9-0.5-1.6-1.5-1.6c-0.9,0-1.6,0.5-1.8,1.3v4.8H0.1v-7.3h1.4V93
			C1.9,92.3,2.6,91.8,3.6,91.8 M-8,88.9h6.4v1.3h-5v3.1h4.5v1.2h-4.5v3.4h4.9v1.3H-8V88.9z M94.7,83.1v-2.4
			c-0.4-0.5-0.8-0.8-1.4-0.8c-1,0-1.6,0.7-1.6,1.9c0,1.3,0.6,1.9,1.6,1.9C93.9,83.8,94.4,83.6,94.7,83.1 M94.8,84.8
			c-0.5,0.6-1.2,0.9-2.2,0.9c-1.9,0-3.1-1.7-3.1-3.8s1.2-3.8,3.1-3.8c1,0,1.7,0.3,2.1,0.8v-3.7h2.2v10.3h-2.1V84.8z M86.5,79.4
			c0.4-0.8,1-1.3,1.8-1.3c0.3,0,0.6,0.1,0.7,0.1v2.1h-0.1c-0.2-0.1-0.5-0.2-1-0.2c-0.7,0-1.2,0.4-1.4,1.2v4.2h-2.2v-7.3h2.1
			L86.5,79.4L86.5,79.4z M80.6,83.2v-0.6c-0.3-0.2-0.8-0.2-1.2-0.2c-0.7,0-1.1,0.3-1.1,0.9c0,0.6,0.4,0.9,1.1,0.9
			C80,84.1,80.4,83.8,80.6,83.2 M80.7,84.8c-0.5,0.6-1.2,0.9-1.9,0.9c-1.4,0-2.6-0.9-2.6-2.4c0-1.4,1.2-2.4,2.9-2.4
			c0.5,0,1.1,0.1,1.6,0.2V81c0-0.8-0.4-1.1-1.6-1.1c-0.7,0-1.5,0.2-2.1,0.6h-0.1v-1.7c0.6-0.3,1.6-0.6,2.5-0.6
			c2.2,0,3.4,1.1,3.4,2.9v4.6h-2.1C80.7,85.7,80.7,84.8,80.7,84.8z M71.1,82.2v3.3h-2.2V75.2h2.2v5.9l2.2-2.9h2.5v0.1l-2.6,3.3
			l2.6,3.8v0.1h-2.5L71.1,82.2z M61.6,81.9c0-2.4,1.7-3.8,3.8-3.8c0.8,0,1.5,0.2,2,0.6v1.9h-0.1c-0.5-0.4-1-0.6-1.7-0.6
			c-1.1,0-1.9,0.7-1.9,2c0,1.3,0.8,2,1.9,2c0.6,0,1.2-0.2,1.7-0.6h0.1v1.8c-0.5,0.4-1.3,0.6-2,0.6C63.3,85.7,61.6,84.2,61.6,81.9
			 M58.3,83.2v-0.6c-0.3-0.2-0.8-0.2-1.2-0.2c-0.7,0-1.1,0.3-1.1,0.9c0,0.6,0.4,0.9,1.1,0.9C57.7,84.1,58.1,83.8,58.3,83.2
			 M58.4,84.8c-0.5,0.6-1.2,0.9-1.9,0.9c-1.4,0-2.6-0.9-2.6-2.4c0-1.4,1.2-2.4,2.9-2.4c0.5,0,1.1,0.1,1.6,0.2V81
			c0-0.8-0.4-1.1-1.6-1.1c-0.7,0-1.5,0.2-2.1,0.6h-0.1v-1.7c0.6-0.3,1.6-0.6,2.5-0.6c2.2,0,3.4,1.1,3.4,2.9v4.6h-2.1
			C58.4,85.7,58.4,84.8,58.4,84.8z M49.6,80.3c1.1,0,1.7-0.6,1.7-1.6s-0.5-1.6-1.7-1.6h-1.4v3.2H49.6z M53.6,78.7
			c0,2.2-1.5,3.5-3.8,3.5h-1.6v3.3H46V75.2h3.8C52.1,75.2,53.6,76.5,53.6,78.7 M40.6,78.2h1.6v1.7h-1.6v3c0,0.6,0.2,0.9,0.9,0.9
			c0.2,0,0.4,0,0.7-0.1l0,0v1.7c-0.3,0.1-0.7,0.2-1.3,0.2c-1.8,0-2.5-0.8-2.5-2.7v-3.1h-2.8v3c0,0.6,0.2,0.9,0.9,0.9
			c0.2,0,0.4,0,0.7-0.1l0,0v1.7c-0.3,0.1-0.7,0.2-1.3,0.2c-1.8,0-2.5-0.8-2.5-2.7v-3.1h-1.1v-1.5h1.1v-2h2.2v2h2.8v-2h2.2
			C40.6,76.2,40.6,78.2,40.6,78.2z M27,81h2.7c-0.1-0.8-0.4-1.3-1.2-1.3C27.8,79.7,27.2,80,27,81 M28.7,85.7c-2.3,0-3.8-1.4-3.8-3.8
			c0-2.3,1.5-3.9,3.5-3.9c2.2,0,3.3,1.5,3.3,3.7v0.8H27c0.3,1.1,1.2,1.4,2,1.4s1.3-0.2,2-0.6h0.1V85C30.6,85.5,29.7,85.7,28.7,85.7
			 M23.5,85.7c-1.8,0-2.5-0.7-2.5-2.4v-8.1h2.2v8c0,0.5,0.2,0.7,0.6,0.7c0.1,0,0.4-0.1,0.5-0.1l0,0v1.8
			C24.1,85.6,23.8,85.7,23.5,85.7 M14.4,81.2l-1.2,4.3h-2L9,78.2l0,0h2.1l1.2,4.3l1.2-4.3h1.7l1.2,4.3l1.2-4.3h2.1v0.1l-2.2,7.3h-2
			L14.4,81.2z M3.9,81h2.7c-0.1-0.8-0.4-1.3-1.2-1.3C4.7,79.7,4.1,80,3.9,81 M5.6,85.7c-2.3,0-3.8-1.4-3.8-3.8
			c0-2.3,1.5-3.9,3.5-3.9c2.2,0,3.3,1.5,3.3,3.7v0.8H3.9c0.3,1.1,1.2,1.4,2,1.4s1.3-0.2,2-0.6H8V85C7.5,85.5,6.6,85.7,5.6,85.7
			 M-5.8,85.5H-8V75.2h2.2v4.1h4v-4.1h2.2v10.3h-2.1v-4.3h-4v4.3H-5.8z"/>
	</g>
</g>
</svg>
